<?xml version="1.0" encoding="UTF-8"?>
<svg id="_图层_2" data-name="图层 2" xmlns="http://www.w3.org/2000/svg" viewBox="0 0 1000 370">
  <defs>
    <style>
      .cls-1 {
        fill: #373737;
      }
    </style>
  </defs>
  <g>
    <path class="cls-1" d="M219.02,93.5l-15.46-7.26c31.98-14.89,47.97-27.89,47.97-39.02,0-7.17-10.31-10.76-30.93-10.76-18.73,0-37.45,4.04-56.18,12.11-22.3,9.69-33.45,21.62-33.45,35.79,0,7.71,7.15,16.33,21.46,25.83,13.25,8.79,26.51,17.58,39.77,26.37,14.31,11.48,21.46,23.41,21.46,35.79,0,18.3-12.2,31.39-36.61,39.28-16.84,5.38-38.09,8.07-63.75,8.07-21.67,0-48.39-4.57-80.16-13.72l11.36-10.49c29.88,11.66,57.96,17.49,84.27,17.49,17.88,0,33.34-2.6,46.39-7.8,17.04-6.63,25.56-16.77,25.56-30.4,0-9.15-7.37-18.83-22.09-29.06-13.47-8.79-26.93-17.58-40.4-26.37-14.73-10.76-22.09-21.43-22.09-32.02,0-20.09,14.3-35.25,42.92-45.47,21.46-7.89,45.87-11.84,73.22-11.84,7.57,0,14.41,1.61,20.51,4.84,7.15,3.59,10.73,8.43,10.73,14.53,0,8.61-5.36,17.13-16.1,25.56-2.11,1.79-11.57,7.98-28.4,18.57Z"/>
    <path class="cls-1" d="M334.84,220.77l-5.68-1.61-3.47-4.84c.21-5.74,4.21-20.18,11.99-43.32l-1.89-1.61c-11.15,4.67-25.46,21.26-42.92,49.78h-15.15c12.2-26.55,18.41-42.15,18.62-46.82l-2.21-3.23c-5.47,.54-13.36,7.8-23.67,21.79-6.52,9.51-12.94,18.93-19.25,28.25h-12.31l14.52-51.12c1.06-3.77,5.47-5.47,13.25-5.11h2.52c-2.1,9.15-5.05,19.55-8.84,31.21,15.05-21.16,27.49-31.75,37.31-31.75,7.11,0,10.66,3.56,10.66,10.66,0,.89-1.58,6.93-4.73,18.13,13.26-19.19,24.51-28.79,33.77-28.79,2.94,0,6.1,1.02,9.47,3.06,3.36,2.04,5.05,4.22,5.05,6.52,0,3.73-1.84,9.18-5.52,16.37-3.68,7.19-5.52,12.47-5.52,15.84,0,1.42,.32,3.81,.95,7.19,3.79,0,7.99-1.88,12.62-5.65,3.57-3.05,7.05-6.1,10.41-9.15l4.42,4.57c-5.26,4.13-10.52,8.25-15.78,12.38-6.94,4.84-13.15,7.26-18.62,7.26Z"/>
    <path class="cls-1" d="M398.59,220.77c-2.94,0-5.36-1.12-7.26-3.35-1.89-2.23-2.84-4.6-2.84-7.1,0-6.42,5.05-21.96,15.15-46.61l14.83-2.68c-2.94,7.9-5.89,15.88-8.84,23.95-3.57,9.87-5.89,18.03-6.94,24.49l4.1,.54c2.95,0,8.52-5.29,16.73-15.87,1.05,2.84,1.58,5.33,1.58,7.46-2.11,3.2-6.11,7.02-11.99,11.46-6.52,5.15-11.36,7.72-14.52,7.72Zm21.78-78.03l-4.42-1.08c-2.31-1.61-3.47-3.94-3.47-7s2.21-5.56,6.63-7.53c6.73,.9,10.1,3.5,10.1,7.8,0,4.67-2.95,7.26-8.84,7.8Z"/>
    <path class="cls-1" d="M470.55,206.78l.32,3.77h4.42l18.3-15.07,2.52,5.11c-4.63,4.13-9.15,8.16-13.57,12.11-5.68,4.3-11.47,6.81-17.36,7.53l-6.63-2.69c-2.1-3.23-3.16-6.28-3.16-9.15,0-4.48,2-13.99,6-28.52l-10.1,7.27c2.74-7,6.84-12.92,12.31-17.76,4.84-18.47,14.1-43.41,27.77-74.8,17.46-40,31.03-60,40.71-60,7.78,0,11.68,4.04,11.68,12.11s-1.37,14.53-4.1,20.45l-16.41,36.06c-2.52,5.38-9.78,15.25-21.78,29.6-11.57,13.63-17.78,21.79-18.62,24.48-8.41,24.22-12.52,40.72-12.31,49.51Zm17.04-64.31c12.62-14.35,23.14-29.5,31.56-45.47,10.52-19.19,15.88-35.96,16.1-50.32v-2.96c-6.94,1.61-16.31,16.59-28.09,44.93-7.37,17.58-13.89,35.52-19.57,53.81Z"/>
    <path class="cls-1" d="M528.3,206.47c-.42,4.87,2.11,7.3,7.57,7.3,8.2,0,17.88-5.56,29.04-16.68h3.79c-1.47,5.62-6.47,10.98-14.99,16.06-8.52,5.08-16.14,7.62-22.88,7.62-11.57,0-17.36-5.31-17.36-15.95,0-8.11,4.89-17.3,14.68-27.57,9.78-10.27,19.2-15.41,28.25-15.41s13.57,3.61,13.57,10.82c0,12.44-13.89,23.71-41.66,33.81Zm27.46-38.44c-6.52,.54-12.63,4.76-18.31,12.65-5.05,7.18-7.89,13.9-8.52,20.18,7.15-2.69,13.78-6.36,19.88-11.03,7.78-5.74,11.68-11.21,11.68-16.41,0-1.25-1.58-3.05-4.73-5.38Z"/>
    <path class="cls-1" d="M713.87,160.63l11.68,.54c-.63,3.41-2.42,6.18-5.36,8.33l-11.99,1.34c-11.79,22.94-28.4,45.79-49.87,68.54-27.35,29.21-51.13,43.81-71.33,43.81-8.62,0-15.15-2.96-19.57-8.87-3.57-4.84-5.36-11.11-5.36-18.81,0-23.29,15.92-44.53,47.75-63.7,27.4-16.48,56.17-26.52,86.32-30.1,25.92-48.73,38.89-86.37,38.89-112.89,0-7.53-2.12-11.29-6.36-11.29-11.87,0-21.2,10.83-27.98,32.48-5.09,15.75-7.63,30.78-7.63,45.09,0,2.51,.73,6,2.21,10.47,1.05,3.4,2.21,6.89,3.47,10.47l-10.73,11.27c-5.68-13.06-8.52-25.68-8.52-37.85,0-13.96,4.42-29.8,13.26-47.52,10.73-21.3,23.04-31.95,36.92-31.95,4.63,0,8.84,2.6,12.63,7.79,3.16,4.66,4.73,9.14,4.73,13.44,0,31.18-11.05,67.65-33.14,109.39Zm-143.28,94.85c0,14.17,4.21,21.26,12.62,21.26,17.67,0,38.72-13.63,63.12-40.9,19.36-22.06,33.56-42.87,42.61-62.42-27.14,3.77-52.5,12.56-76.06,26.37-28.19,16.51-42.29,35.07-42.29,55.7Z"/>
    <path class="cls-1" d="M760.26,219.69c-6.52,0-11.84-1.57-15.94-4.71-4.1-3.14-6.15-7.4-6.15-12.78,0-9.86,4.31-19.15,12.94-27.85,8.63-8.7,18.62-13.05,29.98-13.05,13.26,0,19.88,6.55,19.88,19.64,0,9.51-4.05,18.34-12.15,26.5-8.1,8.16-17.62,12.24-28.56,12.24Zm17.67-51.93c-6.11,0-12.2,4.84-18.31,14.53-5.26,8.61-7.89,15.87-7.89,21.79,0,7.53,3.05,11.3,9.15,11.3,6.94,0,13.46-4.84,19.57-14.53,5.26-8.43,7.89-15.96,7.89-22.6,0-7-3.47-10.49-10.41-10.49Z"/>
    <path class="cls-1" d="M838.22,220.77c-2.94,0-5.36-1.12-7.26-3.35-1.89-2.23-2.84-4.6-2.84-7.1,0-6.42,5.05-21.96,15.15-46.61l14.83-2.68c-2.94,7.9-5.89,15.88-8.84,23.95-3.57,9.87-5.89,18.03-6.94,24.49l4.1,.54c2.95,0,8.52-5.29,16.73-15.87,1.05,2.84,1.58,5.33,1.58,7.46-2.11,3.2-6.1,7.02-11.99,11.46-6.52,5.15-11.36,7.72-14.52,7.72Zm21.78-78.03l-4.42-1.08c-2.31-1.61-3.47-3.94-3.47-7s2.21-5.56,6.63-7.53c6.73,.9,10.1,3.5,10.1,7.8,0,4.67-2.95,7.26-8.84,7.8Z"/>
    <path class="cls-1" d="M941.1,220.77c-8.21,0-12.31-3.7-12.31-11.09,0-4.69,2.57-11.13,7.73-19.34,5.15-8.2,7.73-14.47,7.73-18.79,0-1.44-.74-2.7-2.21-3.79-8.21,2.69-17.26,10.49-27.14,23.41-6.52,9.33-13.15,18.66-19.88,27.98l-10.73-.54,17.67-54.62,15.28-2.72-10.79,32.33c5.04-6.53,10.19-13.06,15.44-19.6,7.56-8.47,15.02-12.71,22.38-12.71,2.73,0,5.51,1.12,8.35,3.35,2.84,2.23,4.26,4.5,4.26,6.82,0,5.18-2.21,11.87-6.63,20.08-5.05,9.1-7.89,15.7-8.52,19.8l4.42,.27c3.79,.18,10.94-5.2,21.46-16.14l1.26,5.71c-8.84,13.06-18.1,19.58-27.77,19.58Z"/>
  </g>
  <g>
    <path class="cls-1" d="M698.67,302.1c2.4,8.08,4.23,16.06,6.11,24.99,2.16-9.07,4.7-17.24,6.67-24,.28-.94,.52-1.83,.56-2.77,0-.66,.85-.94,1.74-.94,1.13,0,2.44,.42,2.54,1.08,.14,.84,.23,1.08,.38,1.64,2.4,8.17,4.79,17.71,6.39,25.04,2.49-9.16,4.6-16.63,6.58-23.02,.47-1.55,.99-3.52,1.46-5.26,.09-.33,.42-.47,.85-.47,1.08,0,2.82,.89,2.82,1.78,0,.09,0,.14-.05,.23-1.41,3.24-3.52,9.21-8.92,27.67-.28,.99-.52,2.21-.8,3.38-.19,.8-.75,1.17-1.41,1.17-1.08,0-2.49-.99-2.96-3.01-1.97-8.41-4.23-17.71-6.29-25.13-2.16,6.9-4.6,16.02-6.76,23.63-.28,.94-.47,2.02-.89,3.38-.23,.7-.75,1.08-1.36,1.08-1.03,0-2.35-1.03-2.82-2.96-2.63-10.94-6.58-25.88-8.31-29.97-.05-.09-.05-.14-.05-.23,0-.52,.75-.75,1.64-.75,1.03,0,2.11,.33,2.25,.94l.66,2.49Z"/>
    <path class="cls-1" d="M762.07,331.88c-.52-.05-2.44-.14-4.09-.14h-.75l-13.06,.19c-.99,0-1.6,.33-2.54,.33s-1.97-1.46-1.97-2.21c0-.42,.33-1.46,.33-2.21v-12.21c-.7-.38-1.27-1.6-1.27-2.3,0-.33,.09-.52,.38-.52h.09c.23,.05,.52,.09,.8,.09v-9.49c0-.99,0-1.93-.09-2.68-.05-.56-.09-.89-.09-1.13,0-.61,.42-.66,.66-.66,.85,0,2.4,.56,2.49,.61l12.73-.85c1.41-.09,3.34-.38,3.9-.38,.85,0,1.6,1.41,1.6,2.3,0,.47-.19,.8-.61,.8h-1.97c-.94,0-1.97,0-2.87,.05l-12.54,.85v10.52l9.91-.61c1.41-.09,3.33-.38,3.9-.38,.84,0,1.6,1.41,1.6,2.35,0,.47-.19,.8-.61,.8h-1.97c-.94,0-1.97,0-2.87,.05l-9.96,.56v13.39l14-.23c1.36,0,2.96-.09,3.9-.14h.05c.8,0,1.5,1.5,1.5,2.49,0,.42-.14,.75-.52,.75h-.05Z"/>
    <path class="cls-1" d="M769.96,302.43c-.84-.23-1.88-1.32-1.88-2.02,0-.23,.09-.42,.33-.52,1.83-.75,7.89-1.5,11.6-1.5,7.47,0,10.47,3.19,10.47,7.23s-3.19,6.44-5.82,7.47c4.51,.47,8.45,3.9,8.45,8.6,0,10.19-11.98,10.57-18.84,10.57-1.41,0-4.18-.14-5.87-.42-.66-.14-.94-.47-.94-.84s.38-.8,1.03-.8c.42,0,1.17-.05,1.46-.09v-27.67Zm3.9,10.19c1.83,0,4.46-.19,5.87-.42,3.43-.61,7.42-2.91,7.42-6.29,0-3.15-2.44-4.65-7.7-4.65-2.16,0-4.32,.28-6.2,.8v10.57h.61Zm6.48,2.35c-2.11,0-5.03,.14-7.09,.33v14.65c14.84,0,16.53-5.03,16.53-8.13,0-5.07-4.88-6.76-8.55-6.86h-.89Z"/>
    <path class="cls-1" d="M819.89,332.16c-5.07,0-5.54-.66-5.54-1.08,0-.56,.61-.89,2.58-.89v-27.81c-.89-.19-1.88-1.32-1.88-2.02,0-.23,.09-.47,.33-.56,1.83-.75,7.56-1.46,10.8-1.46,9.35,0,17.38,6.53,17.38,16.67s-7.19,15.17-14.04,16.39c-3.19,.56-6.11,.7-8.97,.75h-.66Zm.33-2.25c13.81-.23,20.01-6.58,20.01-14.94s-7.37-13.76-14.28-13.76c-2.07,0-3.85,.23-5.73,.75v27.95Z"/>
    <path class="cls-1" d="M852.11,322.58v.47c0,4.09,2.35,6.81,5.5,6.81,3.99,0,7.37-1.27,9.91-3.95,.42-.52,.85-.7,1.08-.7,.28,0,.47,.23,.47,.56,0,1.08-3.62,6.86-11.46,6.86-4.84,0-8.55-3.81-8.55-10.01v-.66c-.56-.42-.99-1.03-.99-1.5,0-.33,.23-.61,.89-.61,.05,0,.33-.05,.42-.05,.85-4.51,5.64-10.85,11.74-10.85s7.8,3.48,7.8,6.86-.33,3.99-4.51,5.31c-2.82,.89-6.76,1.46-11.7,1.46h-.61Zm1.31-2.63c4.65,0,7.66-.66,9.72-1.22,2.25-.66,2.68-1.32,2.68-2.96,0-2.72-1.5-4.09-4.74-4.09-4.6,0-7.89,4.93-8.6,8.27h.94Z"/>
    <path class="cls-1" d="M880.81,320.42c-3.52-.8-5.26-2.44-5.26-5.35,0-3.62,3.95-6.11,8.6-6.11,3.62,0,5.73,1.08,7.52,2.96,.09,.09,.09,.23,.09,.42,0,.85-.8,2.11-1.5,2.11-.28,0-.47-.23-.75-.61-1.41-2.16-4.27-2.3-5.35-2.3-3.62,0-5.54,1.6-5.54,3.62,0,1.27,.61,2.11,3.19,2.72l4.51,1.08c4.09,.94,6.58,2.91,6.58,6.81s-3.48,6.86-9.02,6.86c-7.23,0-9.44-4.23-9.44-4.84,0-.94,1.17-2.25,1.88-2.25,.19,0,.38,.09,.47,.33,.75,1.88,2.02,4.04,7.09,4.04,3.8,0,5.92-1.88,5.92-4.04s-.84-3.48-4.27-4.32l-4.7-1.13Z"/>
    <path class="cls-1" d="M901.75,304.07c-1.22,0-2.35-1.5-2.35-2.82,0-1.22,.75-2.25,2.35-2.25,1.13,0,2.3,1.55,2.3,2.91,0,1.17-.85,2.16-2.3,2.16Zm-1.6,10.43c0-.89-.14-3.95-.14-5.03,0-.28,.38-.42,.89-.42,1.03,0,2.58,.52,2.58,1.27s-.09,3.05-.09,4.18v12.35c0,.56,.14,3.9,.14,4.98,0,.28-.38,.42-.89,.42-1.03,0-2.58-.52-2.58-1.27s.09-3.48,.09-4.13v-12.35Z"/>
    <path class="cls-1" d="M927.87,326.24c-2.35,3.76-5.78,5.21-9.11,5.21-4.93,0-8.13-3.34-8.13-9.58s5.21-12.92,11.32-12.92c2.58,0,4.79,.94,5.96,3.01,0-1.17-.14-1.83-.14-2.49,0-.33,.38-.47,.89-.47,.99,0,2.44,.52,2.44,1.27v.05c-.05,1.17-.19,3.01-.19,4.65v14.47c0,6.86-5.31,10.57-11.55,10.57-4.32,0-6.72-1.5-8.41-4.23-.09-.14-.14-.28-.14-.42,0-.94,1.22-2.25,2.07-2.25,.28,0,.52,.14,.66,.47,1.13,2.58,2.63,3.57,5.82,3.57,4.84,0,8.5-2.96,8.5-7.75v-3.15Zm-.85-12.26c-.23,0-.47-.09-.61-.28-.94-1.27-2.72-1.97-4.42-1.97-4.6,0-8.17,5.21-8.17,10.1s1.69,6.81,4.93,6.81,7.8-2.54,8.92-7.42c.23-.99,.23-4.74,.23-7.75-.23,.33-.56,.52-.89,.52Z"/>
    <path class="cls-1" d="M955.3,330.98c.05-.75,.09-3.52,.09-4.6v-8.36c0-3.66-.75-6.11-3.85-6.11s-6.76,1.69-8.17,6.39c-.7,2.35-.7,6.34-.75,8.55v.75c0,1.5,.09,3.01,.14,4.23,0,.33-.38,.47-.89,.47-.99,0-2.44-.52-2.44-1.31,0-.75,.09-3.95,.09-4.6v-11.7c0-.89-.14-3.95-.14-5.03,0-.33,.38-.47,.89-.47,.99,0,2.44,.52,2.44,1.32,0,0-.09,2.4-.09,3.62,2.02-3.29,5.5-5.12,8.92-5.12,6.06,0,6.95,4.98,6.95,8.83v9.02c0,.56,.14,3.9,.14,4.98,0,.33-.38,.47-.89,.47-1.03,0-2.44-.52-2.44-1.27v-.05Z"/>
  </g>
</svg>